PathFileType	4	(X/Y/Z)	C:/Users/beibeiliu/ov580/test_trc/User3\sequence.22_training_dense_left.trc
DataRate	CameraRate	NumFrames	NumMarkers	Units	OrigDataRate	OrigDataStartFrame	OrigNumFrames
120	120	11	19	mm	120	230	262
Frame#	Time	ThumbCMC			ThumbMCP			ThumbIP			ThumbTip			IndexMCP			IndexPIP			IndexTip			MiddleMCP			MiddlePIP			MiddleTip			RingMCP			RingPIP			RingTip			PinkyMCP			PinkyPIP			PinkyTip			BackHand1			BackHand2			BackHand3	
		X0	Y0	Z0	X1	Y1	Z1	X2	Y2	Z2	X3	Y3	Z3	X4	Y4	Z4	X5	Y5	Z5	X6	Y6	Z6	X7	Y7	Z7	X8	Y8	Z8	X9	Y9	Z9	X10	Y10	Z10	X11	Y11	Z11	X12	Y12	Z12	X13	Y13	Z13	X14	Y14	Z14	X15	Y15	Z15	X16	Y16	Z16	X17	Y17	Z17	X18	Y18	Z18	
229	1.90833	-220.118	11.1891	0.355211	-209.615	32.8559	-17.6664	-202.931	50.6226	-40.2523	-196.905	67.0192	-61.8961	-199.764	-20.1786	-65.0918	-185.768	-22.6178	-91.4686	-168.761	-14.5286	-110.455	-184.995	-34.2368	-63.5905	-167.521	-32.8467	-96.9779	-145.405	-12.3013	-109.448	-167.248	-40.5381	-53.3106	-151.637	-37.3729	-78.8933	-132.975	-15.6099	-94.3752	-154.317	-37.2497	-37.1331	-145.571	-36.8993	-55.1258	-132.433	-26.9983	-78.6607	-186.491	-40.6094	-7.14652	-193.532	-44.8821	21.8639	-214.805	-28.738	-6.15965	
230	1.91667	-221.463	13.9951	2.0675	-207.679	30.3998	-23.7212	-202.709	47.327	-45.1417	-195.882	59.6502	-66.1283	-214.055	-23.67	-61.8664	-203.301	-29.9875	-92.4406	-187.041	-25.0122	-114.596	-199.333	-43.4502	-62.0658	-192.211	-44.1681	-96.7827	-168.056	-22.4142	-118.659	-187.412	-44.4792	-56.0658	-174.315	-50.285	-81.0707	-160.264	-32.5869	-102.712	-167.959	-45.9391	-38.1289	-163.692	-46.4153	-65.2471	-153.451	-39.5138	-87.482	-196.346	-45.7715	-10.0408	-202.829	-42.4597	18.0118	-223.74	-27.3977	-2.1793	
231	1.925	-219.319	14.0987	-0.297386	-208.564	32.4748	-26.0674	-201.497	44.085	-49.6523	-194.282	55.6356	-68.5397	-229.098	-24.7668	-62.8183	-224.563	-32.8365	-90.4346	-205.158	-32.3743	-116.75	-221.645	-43.5837	-64.6943	-214.176	-48.142	-97.9997	-190.595	-33.2861	-121.883	-204.431	-50.9493	-56.9152	-195.762	-57.4932	-83.3803	-180.858	-43.237	-106.886	-185.027	-49.8973	-39.235	-184.147	-55.6488	-65.0131	-178.344	-55.3063	-87.5631	-208.732	-46.7949	-9.0969	-209.418	-44.9162	19.6894	-230.483	-23.8851	0.0505256	
232	1.93333	-218.094	15.3449	0.0270234	-203.941	25.1691	-27.1905	-198.811	40.7297	-50.7108	-190.092	47.4261	-69.9476	-240.591	-25.8079	-59.5294	-241.794	-32.5964	-87.9938	-228.687	-32.3221	-112.603	-235.385	-47.237	-60.9441	-235.323	-50.5911	-94.3029	-213.935	-41.2944	-118.336	-219.381	-57.0914	-55.6424	-219.42	-59.2085	-83.0317	-201.937	-50.615	-108.799	-202.524	-56.8778	-42.1371	-202.648	-64.5614	-66.1771	-200.753	-62.1892	-92.4054	-217.394	-45.821	-4.822	-214.125	-45.3638	21.8461	-235.404	-20.647	6.31069	
233	1.94167	-215.009	14.7327	3.86034	-202.357	22.9286	-26.0201	-195.423	37.1335	-51.1553	-188.63	39.5591	-79.362	-248.803	-21.6307	-54.5154	-253.61	-32.7493	-84.8797	-240.874	-35.2965	-110.265	-246.935	-42.3768	-55.3848	-251.41	-50.566	-86.4688	-225.811	-42.5638	-117.514	-233.432	-52.0884	-48.614	-235.999	-63.3534	-78.4705	-220.777	-52.6966	-108.411	-214.835	-60.0407	-38.8519	-222.148	-65.5487	-65.1618	-218.612	-67.0911	-87.2969	-224.521	-50.9294	-3.91479	-220.042	-46.1551	24.1029	-239.165	-19.8112	4.14629	
234	1.95	-213.213	14.8688	-0.402049	-198.418	21.5226	-26.2894	-193.052	32.8371	-54.7433	-185.339	31.1557	-76.982	-255.951	-18.6647	-53.8135	-260.9	-27.8766	-83.7251	-252.296	-29.3245	-109.177	-258.908	-39.1203	-54.9634	-261.682	-44.5016	-88.0833	-239.013	-40.3755	-114.061	-247.849	-52.82	-50.132	-251.127	-57.5468	-76.2264	-233.102	-54.0239	-104.761	-226.438	-59.098	-37.2095	-236.543	-66.873	-60.7553	-236.739	-65.4496	-86.7083	-233.622	-46.3093	-3.61861	-227.286	-42.5194	24.5625	-241.049	-15.2234	8.1494	
235	1.95833	-206.896	13.6958	4.08056	-194.898	20.1332	-28.0768	-186.021	29.358	-53.9793	-182.184	25.3649	-79.7784	-257.505	-14.0195	-50.7699	-266.521	-18.2561	-77.6358	-258.018	-22.2662	-109.205	-265.324	-33.9543	-53.5531	-270.335	-33.9156	-86.5408	-247.493	-36.3749	-112.715	-256.17	-47.9858	-47.8133	-261.602	-50.3593	-76.5568	-245.826	-51.1515	-101.518	-238.926	-61.0448	-36.3392	-248.97	-61.4361	-60.9494	-247.93	-60.5757	-82.8733	-237.829	-44.2858	-0.954072	-228.943	-44.382	27.7633	-242.357	-7.81958	8.05807	
236	1.96667	-199.472	13.607	2.4244	-186.459	17.2767	-27.7349	-178.754	23.1342	-56.4435	-174.191	20.8054	-80.0819	-257.788	-2.74494	-53.2618	-266.1	-9.5689	-78.5669	-259.461	-17.4056	-108.838	-264.414	-21.2098	-49.9599	-272.657	-26.4312	-85.8233	-251.443	-29.7944	-111.39	-259.258	-37.564	-45.5458	-266.426	-43.869	-78.7011	-248.759	-45.9815	-102.916	-247.406	-57.2066	-35.0224	-258.17	-53.5052	-61.8804	-253.444	-51.1669	-86.1224	-243.424	-35.8629	1.07623	-236.433	-40.4431	27.04	-237.963	-5.62324	9.15481	
237	1.975	-197.49	5.34023	-0.926493	-181.924	10.6591	-31.1294	-173.38	11.6121	-55.5068	-165.527	12.1909	-79.9898	-252.727	3.15983	-54.5659	-260.993	1.79881	-79.3775	-256.788	-9.55011	-106.107	-264.331	-10.4696	-53.9579	-270.417	-12.5061	-86.7721	-247.822	-26.519	-113.498	-261.109	-30.8615	-48.1388	-267.586	-32.3002	-77.6872	-249.677	-37.3993	-103.066	-251.49	-45.7801	-39.007	-260.525	-47.8916	-60.0587	-252.519	-48.4648	-89.741	-246.163	-34.4197	-1.2842	-240.083	-33.8078	24.5382	-235.394	-3.92181	9.50656	
238	1.98333	-187.913	3.99533	0.443295	-172.469	2.88455	-26.3274	-160.671	5.75269	-55.9892	-157.049	1.08671	-78.2413	-241.445	8.48393	-55.2589	-252.367	5.1764	-86.5721	-247.409	-2.83883	-111.735	-258.643	-5.27834	-56.6725	-265.075	-10.545	-89.202	-241.674	-23.6784	-115.94	-258.508	-22.4708	-53.2312	-263.057	-25.1567	-80.2164	-245.513	-37.0774	-104.591	-254.828	-43.3655	-41.5659	-257.739	-40.815	-66.4538	-250.839	-46.317	-90.2385	-244.79	-26.4034	-1.895	-243.223	-31.0531	22.7641	-225.934	-0.187009	8.98351	
239	1.99167	-180.152	-2.89717	1.24255	-166.565	-7.54842	-27.3242	-153.344	-7.19899	-54.6645	-145.888	-11.5994	-79.2275	-232.394	4.82388	-57.3294	-240.557	7.44213	-87.0706	-239.626	-6.11477	-114.15	-250.463	-2.86485	-58.7864	-257.405	-7.62527	-90.6461	-237.06	-27.328	-116.981	-253.809	-21.398	-53.4718	-256.361	-23.4426	-85.5634	-243.143	-39.3872	-104.659	-249.43	-40.119	-39.5736	-254.818	-38.2132	-70.3764	-248.704	-43.1296	-89.8317	-244.678	-24.7101	-6.55207	-240.577	-27.3654	25.0157	-221.471	0.520545	5.12568	
